<mxfile host="app.diagrams.net" modified="2024-01-07T00:06:31.439Z" agent="Mozilla/5.0 (Windows NT 10.0; Win64; x64) AppleWebKit/537.36 (KHTML, like Gecko) Chrome/120.0.0.0 Safari/537.36" etag="YRCOwxy9jVVwrMj8AjJF" version="22.1.17" type="device">
  <diagram name="Page-1" id="ilEBMqfdQ6se7s2FjwbD">
    <mxGraphModel dx="2758" dy="1452" grid="0" gridSize="10" guides="1" tooltips="1" connect="1" arrows="1" fold="1" page="1" pageScale="1" pageWidth="1700" pageHeight="1100" math="0" shadow="0">
      <root>
        <mxCell id="0" />
        <mxCell id="1" parent="0" />
        <mxCell id="W3Y3JniCTZ74plT9wQjM-1" value="Actor" style="shape=umlActor;verticalLabelPosition=bottom;verticalAlign=top;html=1;outlineConnect=0;" vertex="1" parent="1">
          <mxGeometry x="30" y="40" width="40" height="60" as="geometry" />
        </mxCell>
        <mxCell id="W3Y3JniCTZ74plT9wQjM-2" value="&lt;font style=&quot;font-size: 17px;&quot;&gt;&lt;b&gt;Keycloak&lt;br&gt;(+ AD)&lt;br&gt;&lt;/b&gt;&lt;/font&gt;" style="whiteSpace=wrap;html=1;aspect=fixed;" vertex="1" parent="1">
          <mxGeometry x="320" y="40" width="80" height="80" as="geometry" />
        </mxCell>
        <mxCell id="W3Y3JniCTZ74plT9wQjM-4" value="&lt;b style=&quot;border-color: var(--border-color); font-size: 17px;&quot;&gt;Android App&lt;/b&gt;" style="whiteSpace=wrap;html=1;aspect=fixed;" vertex="1" parent="1">
          <mxGeometry x="800" y="40" width="80" height="80" as="geometry" />
        </mxCell>
        <mxCell id="W3Y3JniCTZ74plT9wQjM-5" value="&lt;font style=&quot;font-size: 17px;&quot;&gt;&lt;b&gt;Frontend&lt;/b&gt;&lt;/font&gt;" style="whiteSpace=wrap;html=1;aspect=fixed;" vertex="1" parent="1">
          <mxGeometry x="1040" y="39" width="80" height="80" as="geometry" />
        </mxCell>
        <mxCell id="W3Y3JniCTZ74plT9wQjM-6" value="" style="endArrow=none;dashed=1;html=1;rounded=0;" edge="1" parent="1" source="W3Y3JniCTZ74plT9wQjM-13">
          <mxGeometry width="50" height="50" relative="1" as="geometry">
            <mxPoint x="360" y="890" as="sourcePoint" />
            <mxPoint x="360" y="120" as="targetPoint" />
            <Array as="points">
              <mxPoint x="360" y="150" />
            </Array>
          </mxGeometry>
        </mxCell>
        <mxCell id="W3Y3JniCTZ74plT9wQjM-7" value="" style="endArrow=none;dashed=1;html=1;rounded=0;" edge="1" parent="1">
          <mxGeometry width="50" height="50" relative="1" as="geometry">
            <mxPoint x="839.5" y="890" as="sourcePoint" />
            <mxPoint x="839.5" y="120" as="targetPoint" />
          </mxGeometry>
        </mxCell>
        <mxCell id="W3Y3JniCTZ74plT9wQjM-8" value="" style="endArrow=none;dashed=1;html=1;rounded=0;" edge="1" parent="1" source="W3Y3JniCTZ74plT9wQjM-18">
          <mxGeometry width="50" height="50" relative="1" as="geometry">
            <mxPoint x="1079.5" y="889" as="sourcePoint" />
            <mxPoint x="1079.5" y="119" as="targetPoint" />
          </mxGeometry>
        </mxCell>
        <mxCell id="W3Y3JniCTZ74plT9wQjM-9" value="" style="endArrow=none;dashed=1;html=1;rounded=0;" edge="1" parent="1" source="W3Y3JniCTZ74plT9wQjM-11">
          <mxGeometry width="50" height="50" relative="1" as="geometry">
            <mxPoint x="49.5" y="890" as="sourcePoint" />
            <mxPoint x="49.5" y="120" as="targetPoint" />
          </mxGeometry>
        </mxCell>
        <mxCell id="W3Y3JniCTZ74plT9wQjM-10" value="" style="endArrow=none;dashed=1;html=1;rounded=0;" edge="1" parent="1" target="W3Y3JniCTZ74plT9wQjM-11">
          <mxGeometry width="50" height="50" relative="1" as="geometry">
            <mxPoint x="49.5" y="890" as="sourcePoint" />
            <mxPoint x="49.5" y="120" as="targetPoint" />
          </mxGeometry>
        </mxCell>
        <mxCell id="W3Y3JniCTZ74plT9wQjM-11" value="" style="rounded=0;whiteSpace=wrap;html=1;fillColor=#dae8fc;strokeColor=#6c8ebf;" vertex="1" parent="1">
          <mxGeometry x="32.5" y="160" width="35" height="1160" as="geometry" />
        </mxCell>
        <mxCell id="W3Y3JniCTZ74plT9wQjM-12" value="" style="endArrow=none;dashed=1;html=1;rounded=0;" edge="1" parent="1" target="W3Y3JniCTZ74plT9wQjM-13">
          <mxGeometry width="50" height="50" relative="1" as="geometry">
            <mxPoint x="360" y="890" as="sourcePoint" />
            <mxPoint x="360" y="120" as="targetPoint" />
          </mxGeometry>
        </mxCell>
        <mxCell id="W3Y3JniCTZ74plT9wQjM-13" value="" style="rounded=0;whiteSpace=wrap;html=1;fillColor=#dae8fc;strokeColor=#6c8ebf;" vertex="1" parent="1">
          <mxGeometry x="340" y="280" width="40" height="1040" as="geometry" />
        </mxCell>
        <mxCell id="W3Y3JniCTZ74plT9wQjM-14" value="" style="endArrow=classic;html=1;rounded=0;entryX=0;entryY=0;entryDx=0;entryDy=0;" edge="1" parent="1" target="W3Y3JniCTZ74plT9wQjM-18">
          <mxGeometry width="50" height="50" relative="1" as="geometry">
            <mxPoint x="70" y="160" as="sourcePoint" />
            <mxPoint x="1302.5" y="160" as="targetPoint" />
          </mxGeometry>
        </mxCell>
        <mxCell id="W3Y3JniCTZ74plT9wQjM-15" value="&lt;font style=&quot;font-size: 17px;&quot;&gt;&lt;b&gt;Backend&lt;/b&gt;&lt;/font&gt;" style="whiteSpace=wrap;html=1;aspect=fixed;" vertex="1" parent="1">
          <mxGeometry x="1280" y="40" width="80" height="80" as="geometry" />
        </mxCell>
        <mxCell id="W3Y3JniCTZ74plT9wQjM-16" value="" style="endArrow=none;dashed=1;html=1;rounded=0;" edge="1" parent="1">
          <mxGeometry width="50" height="50" relative="1" as="geometry">
            <mxPoint x="1319.5" y="890" as="sourcePoint" />
            <mxPoint x="1319.5" y="120" as="targetPoint" />
          </mxGeometry>
        </mxCell>
        <mxCell id="W3Y3JniCTZ74plT9wQjM-17" value="" style="endArrow=none;dashed=1;html=1;rounded=0;" edge="1" parent="1" target="W3Y3JniCTZ74plT9wQjM-18">
          <mxGeometry width="50" height="50" relative="1" as="geometry">
            <mxPoint x="1079.5" y="889" as="sourcePoint" />
            <mxPoint x="1079.5" y="119" as="targetPoint" />
          </mxGeometry>
        </mxCell>
        <mxCell id="W3Y3JniCTZ74plT9wQjM-18" value="" style="rounded=0;whiteSpace=wrap;html=1;fillColor=#dae8fc;strokeColor=#6c8ebf;" vertex="1" parent="1">
          <mxGeometry x="1062.5" y="159" width="35" height="1161" as="geometry" />
        </mxCell>
        <mxCell id="W3Y3JniCTZ74plT9wQjM-19" value="&lt;font style=&quot;font-size: 19px;&quot;&gt;tries to access the website&lt;/font&gt;" style="text;html=1;align=center;verticalAlign=middle;resizable=0;points=[];autosize=1;strokeColor=none;fillColor=none;labelBackgroundColor=default;" vertex="1" parent="1">
          <mxGeometry x="630" y="140" width="250" height="40" as="geometry" />
        </mxCell>
        <mxCell id="W3Y3JniCTZ74plT9wQjM-20" value="" style="endArrow=classic;html=1;rounded=0;" edge="1" parent="1">
          <mxGeometry width="50" height="50" relative="1" as="geometry">
            <mxPoint x="70" y="280" as="sourcePoint" />
            <mxPoint x="340" y="280" as="targetPoint" />
          </mxGeometry>
        </mxCell>
        <mxCell id="W3Y3JniCTZ74plT9wQjM-21" value="&lt;font style=&quot;font-size: 19px;&quot;&gt;enters the login &lt;br&gt;credentials&lt;/font&gt;" style="text;html=1;align=center;verticalAlign=middle;resizable=0;points=[];autosize=1;strokeColor=none;fillColor=none;labelBackgroundColor=default;" vertex="1" parent="1">
          <mxGeometry x="125" y="245" width="150" height="60" as="geometry" />
        </mxCell>
        <mxCell id="W3Y3JniCTZ74plT9wQjM-25" value="&lt;font style=&quot;font-size: 19px;&quot;&gt;redirect&amp;nbsp; to login&lt;/font&gt;" style="endArrow=open;endSize=12;dashed=1;html=1;rounded=0;entryX=0.97;entryY=0.058;entryDx=0;entryDy=0;entryPerimeter=0;" edge="1" parent="1" target="W3Y3JniCTZ74plT9wQjM-11">
          <mxGeometry width="160" relative="1" as="geometry">
            <mxPoint x="1060" y="230" as="sourcePoint" />
            <mxPoint x="147.5" y="220" as="targetPoint" />
          </mxGeometry>
        </mxCell>
        <mxCell id="W3Y3JniCTZ74plT9wQjM-26" value="" style="endArrow=open;endSize=12;dashed=1;html=1;rounded=0;entryX=0.97;entryY=0.382;entryDx=0;entryDy=0;entryPerimeter=0;" edge="1" parent="1">
          <mxGeometry width="160" relative="1" as="geometry">
            <mxPoint x="336.78000000000003" y="380.14" as="sourcePoint" />
            <mxPoint x="63.22999999999981" y="380.0000000000001" as="targetPoint" />
          </mxGeometry>
        </mxCell>
        <mxCell id="W3Y3JniCTZ74plT9wQjM-27" value="&lt;font style=&quot;font-size: 17px;&quot;&gt;redirect to the &lt;br&gt;2FA module &lt;br&gt;(TOTP)&lt;br&gt;&lt;/font&gt;" style="edgeLabel;html=1;align=center;verticalAlign=middle;resizable=0;points=[];" vertex="1" connectable="0" parent="W3Y3JniCTZ74plT9wQjM-26">
          <mxGeometry x="0.0275" relative="1" as="geometry">
            <mxPoint x="14" as="offset" />
          </mxGeometry>
        </mxCell>
        <mxCell id="W3Y3JniCTZ74plT9wQjM-34" value="" style="endArrow=classic;html=1;rounded=0;" edge="1" parent="1">
          <mxGeometry width="50" height="50" relative="1" as="geometry">
            <mxPoint x="70" y="440" as="sourcePoint" />
            <mxPoint x="1060" y="440" as="targetPoint" />
          </mxGeometry>
        </mxCell>
        <mxCell id="W3Y3JniCTZ74plT9wQjM-35" value="&lt;font style=&quot;font-size: 19px;&quot;&gt;web page for&lt;br&gt;TOTP&lt;br&gt;&lt;/font&gt;" style="text;html=1;align=center;verticalAlign=middle;resizable=0;points=[];autosize=1;strokeColor=none;fillColor=none;labelBackgroundColor=default;" vertex="1" parent="1">
          <mxGeometry x="440" y="410" width="130" height="60" as="geometry" />
        </mxCell>
        <mxCell id="W3Y3JniCTZ74plT9wQjM-40" value="" style="rounded=0;whiteSpace=wrap;html=1;fillColor=#dae8fc;strokeColor=#6c8ebf;" vertex="1" parent="1">
          <mxGeometry x="822.5" y="520" width="35" height="490" as="geometry" />
        </mxCell>
        <mxCell id="W3Y3JniCTZ74plT9wQjM-41" value="" style="rounded=0;whiteSpace=wrap;html=1;fillColor=#dae8fc;strokeColor=#6c8ebf;" vertex="1" parent="1">
          <mxGeometry x="1302.5" y="640" width="35" height="680" as="geometry" />
        </mxCell>
        <mxCell id="W3Y3JniCTZ74plT9wQjM-45" value="" style="endArrow=classic;html=1;rounded=0;" edge="1" parent="1">
          <mxGeometry width="50" height="50" relative="1" as="geometry">
            <mxPoint x="380" y="800" as="sourcePoint" />
            <mxPoint x="380" y="841" as="targetPoint" />
            <Array as="points">
              <mxPoint x="430" y="800" />
              <mxPoint x="470" y="800" />
              <mxPoint x="470" y="841" />
            </Array>
          </mxGeometry>
        </mxCell>
        <mxCell id="W3Y3JniCTZ74plT9wQjM-46" value="&lt;font style=&quot;font-size: 19px;&quot;&gt;verify code&lt;/font&gt;" style="text;html=1;align=center;verticalAlign=middle;resizable=0;points=[];autosize=1;strokeColor=none;fillColor=none;labelBackgroundColor=default;" vertex="1" parent="1">
          <mxGeometry x="430" y="770" width="120" height="40" as="geometry" />
        </mxCell>
        <mxCell id="W3Y3JniCTZ74plT9wQjM-47" value="" style="endArrow=classic;html=1;rounded=0;" edge="1" parent="1">
          <mxGeometry width="50" height="50" relative="1" as="geometry">
            <mxPoint x="70" y="1080" as="sourcePoint" />
            <mxPoint x="1060" y="1080" as="targetPoint" />
          </mxGeometry>
        </mxCell>
        <mxCell id="W3Y3JniCTZ74plT9wQjM-48" value="&lt;font style=&quot;font-size: 19px;&quot;&gt;Access token + Refresh token +&lt;br&gt;get resource&lt;br&gt;&lt;/font&gt;" style="edgeLabel;html=1;align=center;verticalAlign=middle;resizable=0;points=[];" vertex="1" connectable="0" parent="W3Y3JniCTZ74plT9wQjM-47">
          <mxGeometry x="-0.2506" y="2" relative="1" as="geometry">
            <mxPoint x="99" as="offset" />
          </mxGeometry>
        </mxCell>
        <mxCell id="W3Y3JniCTZ74plT9wQjM-49" value="&lt;font style=&quot;font-size: 19px;&quot;&gt;Access token +&lt;br&gt;Refresh token&lt;/font&gt;" style="endArrow=open;endSize=12;dashed=1;html=1;rounded=0;exitX=0;exitY=0.693;exitDx=0;exitDy=0;exitPerimeter=0;" edge="1" parent="1" source="W3Y3JniCTZ74plT9wQjM-13">
          <mxGeometry width="160" relative="1" as="geometry">
            <mxPoint x="330" y="1000" as="sourcePoint" />
            <mxPoint x="70" y="1001" as="targetPoint" />
          </mxGeometry>
        </mxCell>
        <mxCell id="W3Y3JniCTZ74plT9wQjM-50" value="" style="endArrow=classic;html=1;rounded=0;" edge="1" parent="1">
          <mxGeometry width="50" height="50" relative="1" as="geometry">
            <mxPoint x="1100" y="1120" as="sourcePoint" />
            <mxPoint x="1300" y="1120" as="targetPoint" />
          </mxGeometry>
        </mxCell>
        <mxCell id="W3Y3JniCTZ74plT9wQjM-51" value="&lt;font style=&quot;font-size: 18px;&quot;&gt;Access token +&lt;br&gt;&amp;nbsp;refresh token&lt;/font&gt;" style="edgeLabel;html=1;align=center;verticalAlign=middle;resizable=0;points=[];" vertex="1" connectable="0" parent="W3Y3JniCTZ74plT9wQjM-50">
          <mxGeometry x="-0.1054" y="3" relative="1" as="geometry">
            <mxPoint as="offset" />
          </mxGeometry>
        </mxCell>
        <mxCell id="W3Y3JniCTZ74plT9wQjM-52" value="" style="endArrow=classic;html=1;rounded=0;entryX=1.05;entryY=0.889;entryDx=0;entryDy=0;entryPerimeter=0;" edge="1" parent="1" target="W3Y3JniCTZ74plT9wQjM-13">
          <mxGeometry width="50" height="50" relative="1" as="geometry">
            <mxPoint x="1300" y="1200" as="sourcePoint" />
            <mxPoint x="950" y="1250" as="targetPoint" />
          </mxGeometry>
        </mxCell>
        <mxCell id="W3Y3JniCTZ74plT9wQjM-53" value="&lt;font style=&quot;font-size: 19px;&quot;&gt;validate the access token&lt;/font&gt;" style="edgeLabel;html=1;align=center;verticalAlign=middle;resizable=0;points=[];" vertex="1" connectable="0" parent="W3Y3JniCTZ74plT9wQjM-52">
          <mxGeometry x="-0.0225" y="-2" relative="1" as="geometry">
            <mxPoint as="offset" />
          </mxGeometry>
        </mxCell>
        <mxCell id="W3Y3JniCTZ74plT9wQjM-54" value="&lt;font style=&quot;font-size: 19px;&quot;&gt;OK&lt;/font&gt;" style="endArrow=open;endSize=12;dashed=1;html=1;rounded=0;entryX=-0.046;entryY=0.902;entryDx=0;entryDy=0;entryPerimeter=0;" edge="1" parent="1" target="W3Y3JniCTZ74plT9wQjM-41">
          <mxGeometry width="160" relative="1" as="geometry">
            <mxPoint x="380" y="1260" as="sourcePoint" />
            <mxPoint x="540" y="1260" as="targetPoint" />
          </mxGeometry>
        </mxCell>
        <mxCell id="W3Y3JniCTZ74plT9wQjM-55" value="&lt;font style=&quot;font-size: 16px;&quot;&gt;Protected resource&lt;/font&gt;" style="endArrow=open;endSize=12;dashed=1;html=1;rounded=0;exitX=0;exitY=1;exitDx=0;exitDy=0;entryX=1;entryY=1;entryDx=0;entryDy=0;" edge="1" parent="1" source="W3Y3JniCTZ74plT9wQjM-41" target="W3Y3JniCTZ74plT9wQjM-18">
          <mxGeometry width="160" relative="1" as="geometry">
            <mxPoint x="1120" y="1310" as="sourcePoint" />
            <mxPoint x="1280" y="1310" as="targetPoint" />
          </mxGeometry>
        </mxCell>
        <mxCell id="W3Y3JniCTZ74plT9wQjM-56" value="&lt;font style=&quot;font-size: 18px;&quot;&gt;Protected resource&lt;/font&gt;" style="endArrow=open;endSize=12;dashed=1;html=1;rounded=0;exitX=0;exitY=1;exitDx=0;exitDy=0;entryX=1;entryY=1;entryDx=0;entryDy=0;" edge="1" parent="1" source="W3Y3JniCTZ74plT9wQjM-18" target="W3Y3JniCTZ74plT9wQjM-11">
          <mxGeometry width="160" relative="1" as="geometry">
            <mxPoint x="680" y="1330" as="sourcePoint" />
            <mxPoint x="840" y="1330" as="targetPoint" />
          </mxGeometry>
        </mxCell>
        <mxCell id="W3Y3JniCTZ74plT9wQjM-57" value="" style="endArrow=classic;html=1;rounded=0;entryX=1.022;entryY=0.068;entryDx=0;entryDy=0;entryPerimeter=0;" edge="1" parent="1" target="W3Y3JniCTZ74plT9wQjM-13">
          <mxGeometry width="50" height="50" relative="1" as="geometry">
            <mxPoint x="380" y="320" as="sourcePoint" />
            <mxPoint x="380" y="360" as="targetPoint" />
            <Array as="points">
              <mxPoint x="470" y="320" />
              <mxPoint x="470" y="351" />
            </Array>
          </mxGeometry>
        </mxCell>
        <mxCell id="W3Y3JniCTZ74plT9wQjM-58" value="&lt;font style=&quot;font-size: 17px;&quot;&gt;validate login&lt;br&gt;&amp;nbsp;with AD&lt;/font&gt;" style="edgeLabel;html=1;align=center;verticalAlign=middle;resizable=0;points=[];" vertex="1" connectable="0" parent="W3Y3JniCTZ74plT9wQjM-57">
          <mxGeometry x="-0.0515" y="1" relative="1" as="geometry">
            <mxPoint x="-11" y="-14" as="offset" />
          </mxGeometry>
        </mxCell>
        <mxCell id="W3Y3JniCTZ74plT9wQjM-60" value="" style="endArrow=classic;html=1;rounded=0;entryX=0;entryY=0;entryDx=0;entryDy=0;" edge="1" parent="1" target="W3Y3JniCTZ74plT9wQjM-40">
          <mxGeometry width="50" height="50" relative="1" as="geometry">
            <mxPoint x="70" y="520" as="sourcePoint" />
            <mxPoint x="120" y="470" as="targetPoint" />
          </mxGeometry>
        </mxCell>
        <mxCell id="W3Y3JniCTZ74plT9wQjM-62" value="&lt;font style=&quot;font-size: 19px;&quot;&gt;take the TOTP code from &lt;br&gt;the application&lt;/font&gt;" style="edgeLabel;html=1;align=center;verticalAlign=middle;resizable=0;points=[];" vertex="1" connectable="0" parent="W3Y3JniCTZ74plT9wQjM-60">
          <mxGeometry x="0.108" y="-2" relative="1" as="geometry">
            <mxPoint x="23" y="-2" as="offset" />
          </mxGeometry>
        </mxCell>
        <mxCell id="W3Y3JniCTZ74plT9wQjM-63" value="" style="endArrow=classic;html=1;rounded=0;entryX=-0.071;entryY=0.38;entryDx=0;entryDy=0;entryPerimeter=0;" edge="1" parent="1" target="W3Y3JniCTZ74plT9wQjM-18">
          <mxGeometry width="50" height="50" relative="1" as="geometry">
            <mxPoint x="70" y="600" as="sourcePoint" />
            <mxPoint x="120" y="550" as="targetPoint" />
          </mxGeometry>
        </mxCell>
        <mxCell id="W3Y3JniCTZ74plT9wQjM-64" value="&lt;font style=&quot;font-size: 19px;&quot;&gt;TOTP code&lt;/font&gt;" style="edgeLabel;html=1;align=center;verticalAlign=middle;resizable=0;points=[];" vertex="1" connectable="0" parent="W3Y3JniCTZ74plT9wQjM-63">
          <mxGeometry x="0.1089" y="-2" relative="1" as="geometry">
            <mxPoint as="offset" />
          </mxGeometry>
        </mxCell>
        <mxCell id="W3Y3JniCTZ74plT9wQjM-65" value="" style="endArrow=classic;html=1;rounded=0;" edge="1" parent="1">
          <mxGeometry width="50" height="50" relative="1" as="geometry">
            <mxPoint x="1100" y="640" as="sourcePoint" />
            <mxPoint x="1300" y="640" as="targetPoint" />
          </mxGeometry>
        </mxCell>
        <mxCell id="W3Y3JniCTZ74plT9wQjM-66" value="&lt;font style=&quot;font-size: 19px;&quot;&gt;TOTP code&lt;/font&gt;" style="edgeLabel;html=1;align=center;verticalAlign=middle;resizable=0;points=[];" vertex="1" connectable="0" parent="W3Y3JniCTZ74plT9wQjM-65">
          <mxGeometry x="0.189" y="-1" relative="1" as="geometry">
            <mxPoint x="-19" y="-1" as="offset" />
          </mxGeometry>
        </mxCell>
        <mxCell id="W3Y3JniCTZ74plT9wQjM-67" value="" style="endArrow=classic;html=1;rounded=0;exitX=0.024;exitY=0.118;exitDx=0;exitDy=0;exitPerimeter=0;entryX=1;entryY=0.422;entryDx=0;entryDy=0;entryPerimeter=0;" edge="1" parent="1" source="W3Y3JniCTZ74plT9wQjM-41" target="W3Y3JniCTZ74plT9wQjM-13">
          <mxGeometry width="50" height="50" relative="1" as="geometry">
            <mxPoint x="1150" y="750" as="sourcePoint" />
            <mxPoint x="1200" y="700" as="targetPoint" />
          </mxGeometry>
        </mxCell>
        <mxCell id="W3Y3JniCTZ74plT9wQjM-68" value="&lt;font style=&quot;font-size: 19px;&quot;&gt;TOTP code verification&lt;/font&gt;" style="edgeLabel;html=1;align=center;verticalAlign=middle;resizable=0;points=[];" vertex="1" connectable="0" parent="W3Y3JniCTZ74plT9wQjM-67">
          <mxGeometry x="0.1338" y="-1" relative="1" as="geometry">
            <mxPoint as="offset" />
          </mxGeometry>
        </mxCell>
        <mxCell id="W3Y3JniCTZ74plT9wQjM-71" value="&lt;font style=&quot;font-size: 19px;&quot;&gt;OK&lt;/font&gt;" style="endArrow=open;endSize=12;dashed=1;html=1;rounded=0;" edge="1" parent="1">
          <mxGeometry x="0.1522" width="160" relative="1" as="geometry">
            <mxPoint x="380" y="880" as="sourcePoint" />
            <mxPoint x="1300" y="880" as="targetPoint" />
            <mxPoint as="offset" />
          </mxGeometry>
        </mxCell>
      </root>
    </mxGraphModel>
  </diagram>
</mxfile>
